<?xml version="1.0" standalone="no"?>
<!DOCTYPE svg PUBLIC "-//W3C//DTD SVG 20010904//EN"
 "http://www.w3.org/TR/2001/REC-SVG-20010904/DTD/svg10.dtd">
<svg version="1.0" xmlns="http://www.w3.org/2000/svg"
 width="613.000000pt" height="613.000000pt" viewBox="0 0 613.000000 613.000000"
 preserveAspectRatio="xMidYMid meet">
<metadata>
Created by potrace 1.11, written by Peter Selinger 2001-2013
</metadata>
<g transform="translate(0.000000,613.000000) scale(0.100000,-0.100000)"
fill="#000000" stroke="none">
<path d="M365 6095 c2 -16 7 -66 10 -110 3 -44 7 -94 9 -111 3 -16 7 -66 11
-110 3 -43 8 -95 10 -114 2 -19 7 -73 11 -120 3 -47 7 -98 9 -115 13 -143 17
-185 20 -215 2 -19 7 -73 10 -120 4 -47 8 -96 10 -110 3 -14 7 -63 10 -110 3
-47 8 -96 10 -110 2 -14 7 -65 10 -114 4 -49 8 -96 10 -105 2 -9 6 -61 10
-116 8 -108 10 -126 19 -225 4 -36 8 -90 11 -120 3 -30 7 -84 11 -120 3 -36 7
-83 9 -105 3 -37 8 -97 20 -215 2 -25 7 -76 10 -115 3 -38 8 -88 10 -110 2
-22 7 -74 10 -115 3 -41 8 -95 10 -120 3 -25 7 -72 10 -105 2 -33 7 -80 10
-105 2 -25 7 -76 10 -115 3 -38 7 -92 10 -120 3 -27 7 -77 10 -110 3 -33 8
-82 10 -110 11 -115 15 -163 21 -225 3 -36 7 -81 9 -100 1 -19 6 -77 10 -129
4 -52 8 -102 10 -110 2 -9 6 -61 10 -116 4 -55 9 -107 10 -116 2 -9 6 -56 10
-105 3 -49 8 -100 10 -114 2 -14 7 -59 10 -100 3 -41 8 -100 11 -130 2 -30 7
-80 9 -110 3 -30 7 -77 10 -105 2 -27 7 -79 10 -115 12 -137 14 -157 20 -225
4 -38 10 -73 14 -77 5 -5 120 -41 170 -54 19 -4 92 -25 356 -99 337 -96 479
-136 495 -140 8 -3 49 -14 90 -26 154 -43 216 -60 245 -68 17 -5 208 -59 425
-120 403 -115 410 -117 445 -108 26 6 1089 305 1140 321 6 1 30 8 55 15 25 7
158 44 295 83 138 38 257 71 265 73 57 13 416 118 422 123 4 4 9 45 12 92 4
47 8 96 10 110 3 14 7 63 11 110 4 47 8 101 10 120 2 19 6 71 9 115 4 44 8 96
11 115 2 19 7 71 10 115 3 44 7 91 10 105 2 14 7 63 10 110 4 47 8 103 10 125
6 64 15 165 21 235 3 36 7 81 9 100 2 19 7 67 10 105 3 39 7 93 10 120 5 49
10 114 20 218 2 28 7 81 10 117 3 36 8 85 10 110 3 25 7 72 10 105 3 33 7 89
10 125 6 61 8 90 20 215 7 76 15 174 20 231 2 28 7 76 10 108 8 83 14 152 20
239 4 43 8 86 10 95 1 10 6 60 10 112 4 52 9 103 11 113 1 10 6 61 9 115 4 53
8 108 10 123 3 14 7 59 10 100 3 40 7 95 10 122 10 95 14 144 20 217 5 72 8
101 19 215 3 28 8 86 11 130 4 44 8 91 10 105 2 14 6 63 10 110 3 47 8 101 10
120 3 19 7 64 10 100 7 82 15 173 20 225 2 22 7 76 10 120 4 44 10 112 15 150
4 39 5 72 3 75 -3 3 -1217 5 -2698 5 l-2694 0 4 -30z"/>
</g>
</svg>
